<svg xmlns="http://www.w3.org/2000/svg" viewBox="0 0 64 64" width="100%" height="100%">
  <path d="M50.4 38.1c-1.3-4.5-5.3-7.7-10.1-7.7c-0.6 0-1.2 0-1.8 0.1C37.3 27.1 33.1 25 28.5 25c-5.7 0-10.5 3.3-12.8 8.1
           c-0.6-0.1-1.3-0.2-2-0.2c-5 0-9 4.1-9 9s4.1 9 9 9h30c4.4 0 8-3.6 8-8C51.6 41.1 51.2 39.5 50.4 38.1z"
        fill="#78909C"
        stroke="#FFFFFF"
        stroke-width="2.5"
        stroke-linejoin="round" />

  <g fill="#B3E5FC" stroke="#FFFFFF" stroke-width="1.8" stroke-linejoin="round">
    <circle cx="20" cy="48" r="2" />
    <circle cx="26" cy="53" r="2" />
    <circle cx="34" cy="49" r="2" />
    <circle cx="42" cy="51" r="2" />
  </g>
</svg>
